# xmcd CD database file
#
# Track frame offsets:
#	187
#	25247
#	41675
#	62985
#	84715
#	98770
#	113560
#	128837
#	144717
#	158112
#	177687
#	193422
#	213110
#	230197
#
# Disc length: 3408 seconds
#
# Revision: 2
# Processed by: cddbd v1.5.2PL0 Copyright (c) Steve Scherf et al.
# Submitted via: CDex 1.70beta2
#
DISCID=cf0d4e0e
DTITLE=OTHER - FUSION SHOWER
DYEAR=1987
DGENRE=Fusion
TTITLE0=BLOWN AWAY
TTITLE1=HEARTBEAT
TTITLE2=FIESTA
TTITLE3=AMIGOS
TTITLE4=SUMMER MELODY
TTITLE5=COOL AND GENTLE
TTITLE6=WITH YOUR LOVE
TTITLE7=RHYTHM and SHOES
TTITLE8=A LITTLE PLACE IN MY HEART
TTITLE9=LET ME COUNT THE WAYS
TTITLE10=YOU CAN MAKE ME
TTITLE11=MARIMBA
TTITLE12=MELLOW MOVES
TTITLE13=WOMEN OF IRELAND
EXTD=YEAR: 1987
EXTT0=
EXTT1=
EXTT2=
EXTT3=
EXTT4=
EXTT5=
EXTT6=
EXTT7=
EXTT8=
EXTT9=
EXTT10=
EXTT11=
EXTT12=
EXTT13=
PLAYORDER=
